<!-- Generated by IcoMoon.io -->
<svg version="1.1" xmlns="http://www.w3.org/2000/svg" width="40" height="32" viewBox="0 0 32 32" fill="url(#grad1)">
<title>code</title>
<linearGradient id="grad1" x1="0%" y1="0%" x2="100%" y2="0%">
      <stop offset="0%" style="stop-color:rgb(74,47,189);stop-opacity:1" />
      <stop offset="100%" style="stop-color:rgb(170,54,124);stop-opacity:1" />
    </linearGradient>
<path d="M12 24h4v4h-12v-4h4v-4h4v4zM28 24v-4h-4v4h4zM4 16v4h4v-4h-4zM20 28h4v-4h-4v4zM24 12v4h4v-12h-4v4h-4v4h4zM20 16v-4h-4v-4h4v-4h-12v4h-4v4h4v4h4v4h4v4h4v-4h4v-4h-4z"></path>
</svg>
